<?xml version="1.0" encoding="iso-8859-1"?>
<!-- Generator: Adobe Illustrator 19.0.0, SVG Export Plug-In . SVG Version: 6.00 Build 0)  -->
<svg version="1.1" id="Layer_1" xmlns="http://www.w3.org/2000/svg" xmlns:xlink="http://www.w3.org/1999/xlink" x="0px" y="0px"
	 viewBox="0 0 473.954 473.954" style="enable-background:new 0 0 473.954 473.954;" xml:space="preserve">
<g>
	<circle style="fill:#49A0AE;" cx="236.988" cy="236.988" r="236.966"/>
	<path style="fill:#49A0AE;" d="M98.113,127.205H374.06c22.305,0,40.381,18.08,40.381,40.385v226.362
		c37.01-41.81,59.513-96.751,59.513-156.971C473.954,106.094,367.856,0,236.973,0C106.098,0,0,106.094,0,236.981
		c0,59.24,21.792,113.364,57.732,154.909v-224.3C57.732,145.285,75.808,127.205,98.113,127.205z"/>
</g>
<path style="fill:#E8E8E8;" d="M236.973,473.954c70.656,0,134.049-30.956,177.468-80.003V167.59
	c0-22.305-18.076-40.385-40.381-40.385H98.113c-22.305,0-40.381,18.08-40.381,40.385v224.3
	C101.185,442.126,165.341,473.954,236.973,473.954z"/>
<g>
	<path style="fill:#C6C5C5;" d="M374.752,301.803c-0.015,4.195-3.42,7.6-7.611,7.6H102.857c-4.198,0-7.596-3.405-7.588-7.607l0,0
		c0-4.187,3.39-7.577,7.581-7.577l264.299-0.015C371.34,294.207,374.737,297.608,374.752,301.803L374.752,301.803z"/>
	<path style="fill:#C6C5C5;" d="M237.34,258.653l-134.486,0.015c-4.191,0-7.581,3.39-7.581,7.577
		c-0.007,4.202,3.39,7.607,7.588,7.607h134.471c4.191,0,7.596-3.405,7.611-7.6C244.928,262.062,241.531,258.66,237.34,258.653z"/>
</g>
<polygon style="fill:#BC2C2A;" points="424.114,329.776 211.888,117.229 211.705,117.327 193.834,127.1 214.725,127.1 
	413.831,326.547 413.831,347.426 "/>
<polygon style="fill:#CC3432;" points="322.311,117.229 211.888,117.229 424.114,329.776 424.114,219.357 "/>
<path style="fill:#DDA027;" d="M367.531,206.687l-10.567-14.155l5.673-16.733c0.239-0.703,0.064-1.482-0.464-2.006
	c-0.524-0.524-1.298-0.703-1.998-0.464l-16.737,5.676l-14.155-10.567c-0.591-0.442-1.384-0.509-2.05-0.176
	c-0.659,0.34-1.074,1.018-1.055,1.759l0.224,17.665l-14.421,10.2c-0.606,0.43-0.917,1.164-0.801,1.893
	c0.112,0.733,0.636,1.332,1.336,1.557l16.879,5.242l5.242,16.872c0.217,0.707,0.819,1.231,1.549,1.343
	c0.101,0.019,0.21,0.026,0.307,0.026c0.625,0,1.22-0.307,1.587-0.827l10.204-14.421l17.665,0.225
	c0.703-0.06,1.426-0.397,1.759-1.059C368.04,208.076,367.972,207.279,367.531,206.687z"/>
<g>
</g>
<g>
</g>
<g>
</g>
<g>
</g>
<g>
</g>
<g>
</g>
<g>
</g>
<g>
</g>
<g>
</g>
<g>
</g>
<g>
</g>
<g>
</g>
<g>
</g>
<g>
</g>
<g>
</g>
</svg>
